<svg xmlns="http://www.w3.org/2000/svg" viewBox="0 0 64 64" width="64" height="64" fill="none">
  <path d="M26 8h12v6c0 2-1 4-3 5v3h-6v-3c-2-1-3-3-3-5V8z" fill="#8a7a58" stroke="#3a3018" stroke-width="1.5"/>
  <path d="M24 10h16v3H24z" fill="#c9a227"/>
  <path d="M20 24c0-4 4-6 12-6s12 2 12 6v26c0 6-5 10-12 10s-12-4-12-10V24z" fill="#5a3010" stroke="#2a1808" stroke-width="1.5"/>
  <path d="M22 36c1 12 6 18 10 18s9-6 10-18H22z" fill="#f07828"/>
  <path d="M24 28c2-2 6-3 8-3" stroke="#ffc090" stroke-width="2" stroke-linecap="round" opacity="0.75"/>
  <ellipse cx="32" cy="24" rx="10" ry="3" fill="#8a4820" opacity="0.5"/>
</svg>
